<svg xmlns="http://www.w3.org/2000/svg" width="126.572" height="31.307" viewBox="0 0 126.572 31.307"><g transform="translate(-137.5 -81.5)"><path d="M3.416,0H5.264L7.21-6.16,9.156,0H11l3.458-9.8h-2.38L10.038-3.29,8.092-9.8H6.328L4.382-3.29,2.338-9.8H-.042ZM16.562.14a1.377,1.377,0,0,0,1.386-1.372A1.368,1.368,0,0,0,16.562-2.6a1.368,1.368,0,0,0-1.386,1.372A1.377,1.377,0,0,0,16.562.14ZM26.5,0H28.9L25.564-9.8H23.282L19.964,0h2.394l.336-1.19h3.472ZM23.2-2.968,24.43-7.322l1.232,4.354ZM36.241-4.662h10.7v1.49h-10.7ZM6.678,17H9.072L5.74,7.2H3.458L.14,17H2.534l.336-1.19H6.342Zm-3.3-2.968L4.606,9.678l1.232,4.354Zm15.554-3.29A3.4,3.4,0,0,0,15.414,7.2H11.242V17H13.51V14.284H14.7L16.24,17h2.576l-1.722-3.108A3.412,3.412,0,0,0,18.928,10.742ZM13.51,9.048h1.554a1.581,1.581,0,0,1,1.568,1.694,1.581,1.581,0,0,1-1.568,1.694H13.51ZM26.18,17.28c2.87,0,4.732-1.526,5-3.836H28.77a2.394,2.394,0,0,1-2.576,1.806c-1.848,0-2.912-1.232-2.912-3.15s1.064-3.15,2.912-3.15a2.394,2.394,0,0,1,2.576,1.806h2.408c-.266-2.31-2.128-3.836-5-3.836a4.953,4.953,0,0,0-5.264,5.18A4.953,4.953,0,0,0,26.18,17.28ZM33.586,17h2.268V13.108h3.388V17H41.51V7.2H39.242v3.962H35.854V7.2H33.586Zm10.906,0H46.76V7.2H44.492Zm7.056,0H53.8V9.216h2.7V7.2H48.86V9.216h2.688ZM58.6,17H64.6V15.18H60.872V13.024H64.6V11.246H60.872V9.02H64.6V7.2H58.6Zm13.552.28c2.87,0,4.732-1.526,5-3.836H74.746A2.394,2.394,0,0,1,72.17,15.25c-1.848,0-2.912-1.232-2.912-3.15s1.064-3.15,2.912-3.15a2.394,2.394,0,0,1,2.576,1.806h2.408c-.266-2.31-2.128-3.836-5-3.836a4.953,4.953,0,0,0-5.264,5.18A4.953,4.953,0,0,0,72.156,17.28Zm8.96-.28H83.37V9.216h2.7V7.2H78.428V9.216h2.688Z" transform="translate(178 94)" fill="#fff"></path><path d="M51.589,24.549l4.346,2.513,4.358,2.509c2.431,1.4,2.332,1.246,2.332,4.056V43.674c0,2.809.091,2.649-2.347,4.051l-4.343,2.509L51.584,52.75c-2.437,1.4-2.25,1.4-4.681,0l-4.344-2.513L38.2,47.724c-2.433-1.4-2.332-1.248-2.332-4.059V33.62c0-2.809-.092-2.647,2.347-4.051l4.342-2.506,4.351-2.516c2.436-1.4,2.25-1.4,4.679,0M50.578,48.907c-1.339.778-1.328.766-2.857-.119-1.083-.623-2.163-1.247-3.249-1.87l-3.157-1.825c-1.636-.943-1.62-.814-1.62-2.7V35c0-1.888-.1-1.807,1.527-2.752.4-.228.8-.458,1.2-.688.515-.3.561.071.712.476V40.05c0,1.483.008,1.706,1,2.254.048.023.1.053.148.079l2.329,1.264c.61.327.776,0,.776-.522v-2.4c0-.582.433-.515.77-.32l2.438,1.416a1.058,1.058,0,0,1,.525,1.027v5.028C51.114,48.473,51.074,48.616,50.578,48.907ZM47.918,28.39c1.338-.779,1.328-.767,2.856.118,1.083.624,2.164,1.246,3.251,1.87,1.054.611,2.1,1.216,3.157,1.824,1.635.945,1.619.816,1.619,2.7v7.393c0,1.888.1,1.807-1.527,2.751-.4.228-.8.459-1.2.688-.514.3-.56-.07-.711-.475V37.246c0-1.483-.009-1.706-1-2.254-.048-.024-.1-.053-.148-.079L51.89,33.649c-.609-.328-.776,0-.776.521v2.4c0,.582-.433.514-.77.319l-2.438-1.416a1.057,1.057,0,0,1-.524-1.026V29.419C47.382,28.823,47.421,28.681,47.918,28.39Z" transform="translate(102.131 58.505)" fill="none" stroke="#fff" stroke-width="1" fill-rule="evenodd"></path></g></svg>