<svg xmlns="http://www.w3.org/2000/svg" viewBox="0 0 334 336" fill="none" role="img" aria-label="Poiesis Studio"><path fill="currentColor" d="M4.7 330.4C4.4 330.1 4.1 312.1 4.0 290.5L3.9 251.3 42.1 213.4C80.2 175.6 82.8 173.0 85.2 169.8L86.5 168.2 167.0 167.3L247.5 166.5 247.5 127.5L247.5 88.5 200.0 87.9C173.9 87.5 120.0 87.2 80.2 87.1L7.9 86.9 8.2 86.0C8.4 85.4 25.6 67.8 46.5 46.7C67.4 25.7 85.0 7.7 85.5 6.7L86.5 5.0 165.0 5.0C208.2 5.0 244.4 5.0 245.5 5.0L247.5 5.0 288.0 45.5C310.3 67.8 328.7 86.3 328.8 86.5C329.0 86.7 329.2 105.4 329.1 128.1L329.1 169.4 288.7 209.7L248.4 250.0 207.9 250.0L167.5 250.0 127.0 290.5L86.5 331.0 45.9 331.0C23.6 331.0 5.1 330.7 4.7 330.4Z"/></svg>